<svg xmlns="http://www.w3.org/2000/svg" width="3600" height="3600" viewBox="0 0 3600 3600" version="1.1">
	<path d="M 1760 351.674 C 1629.855 356.477, 1514.325 374.513, 1397 408.346 C 1260.659 447.662, 1130.254 508.427, 1003.914 591.512 C 889.988 666.434, 788.905 755.277, 702.405 856.515 C 552.599 1031.844, 441.119 1251.798, 389.017 1474.843 C 362.596 1587.950, 350.848 1698.110, 352.316 1819 C 353.642 1928.193, 364.687 2021.442, 388.561 2125 C 424.511 2280.937, 489.990 2436.316, 580.304 2580 C 700.558 2771.316, 862.390 2927.183, 1059.373 3041.415 C 1200.093 3123.019, 1364.171 3187.120, 1520 3221.370 C 1648.965 3249.715, 1781.517 3259.211, 1912 3249.452 C 2069.866 3237.646, 2246.657 3195.439, 2391.498 3134.977 C 2654.208 3025.312, 2866.904 2848.354, 3046.537 2590 C 3098.734 2514.927, 3131.346 2453.073, 3139.402 2413.862 C 3146.185 2380.845, 3137.339 2356.369, 3114.738 2345.622 C 3103.939 2340.487, 3093.920 2338.551, 3078 2338.523 C 3066.474 2338.503, 3063.528 2338.836, 3057.853 2340.797 C 3040.285 2346.869, 3024.023 2361.056, 3007.758 2384.500 C 3004.706 2388.900, 2995.625 2404.322, 2987.579 2418.771 C 2964.861 2459.568, 2944.193 2493.015, 2919.631 2528.730 C 2839.343 2645.480, 2730.771 2767.238, 2638.364 2844.158 C 2548.221 2919.194, 2436.708 2984.382, 2314.237 3033.635 C 2124.350 3110.001, 1927.350 3143.723, 1754.500 3129.451 C 1725.761 3127.078, 1657.067 3119.526, 1656.368 3118.663 C 1656.296 3118.573, 1654.107 2856.440, 1651.504 2536.144 L 1646.772 1953.788 1652.636 1947.816 C 1655.861 1944.531, 1674.991 1925.670, 1695.146 1905.903 L 1731.791 1869.962 1948.036 2103.231 C 2066.970 2231.529, 2164.619 2336.634, 2165.034 2336.798 C 2165.979 2337.172, 2258.152 2231.929, 2257.776 2230.905 C 2257.624 2230.492, 2160.395 2128.361, 2041.710 2003.947 C 1923.026 1879.533, 1826.051 1777.438, 1826.210 1777.071 C 1826.370 1776.703, 1923.475 1680.881, 2042 1564.132 C 2160.525 1447.383, 2257.618 1351.539, 2257.762 1351.145 C 2258.008 1350.471, 2175.612 1270.787, 2168.336 1264.663 L 2164.965 1261.826 1952.338 1473.948 C 1835.393 1590.615, 1739.294 1685.931, 1738.786 1685.762 C 1738.278 1685.593, 1717.887 1664.539, 1693.473 1638.977 L 1649.084 1592.500 1649.040 1562.500 C 1648.997 1532.956, 1655.769 538.538, 1656.252 503.500 L 1656.500 485.500 1667.500 483.292 C 1730.373 470.671, 1813.508 468.210, 1911.500 476.067 C 2006.546 483.688, 2106.849 503.217, 2199.500 532.139 C 2351.475 579.581, 2501.845 657.578, 2622.708 751.657 C 2714.065 822.770, 2786.881 898.074, 2857.508 994.481 C 2884.953 1031.945, 2905.453 1053.024, 2925.685 1064.587 C 2936.822 1070.951, 2944.560 1073.179, 2955.500 1073.170 C 2972.448 1073.156, 2987.524 1066.375, 3001.462 1052.497 C 3014.773 1039.243, 3019.767 1027.041, 3018.648 1010.500 C 3015.336 961.522, 2963.441 887.496, 2863.363 788.997 C 2803.350 729.930, 2748.230 681.935, 2690.648 638.605 C 2462.263 466.750, 2203.240 371.896, 1913.500 354.013 C 1871.037 351.392, 1797.856 350.277, 1760 351.674" stroke="none" fill="black" fill-rule="evenodd"/>
</svg>